<svg width="24" height="16" viewBox="0 0 24 16" fill="none" xmlns="http://www.w3.org/2000/svg">
<path d="M24 13.3294C24 13.8063 23.8656 14.2355 23.6237 14.617L16.0448 7.08196L23.5431 1.26379C23.8387 1.66915 24 2.14605 24 2.67064V13.3294ZM11.9866 8.44113L22.4412 0.333829C22.0112 0.119224 21.5274 0 21.0168 0H2.9832C2.47256 0 1.9888 0.119224 1.55879 0.333829L12.0134 8.44113H11.9866ZM14.916 7.96423L12.4972 9.84799C12.3628 9.96721 12.1747 10.0149 12.0134 10.0149C11.8522 10.0149 11.6641 9.96721 11.5297 9.84799L9.11086 7.96423L1.42441 15.5946C1.8813 15.8569 2.41881 16 3.01008 16H21.0437C21.6349 16 22.1725 15.8569 22.6293 15.5946L14.9429 7.96423H14.916ZM0.456887 1.26379C0.161254 1.66915 0 2.14605 0 2.67064V13.3294C0 13.8063 0.134378 14.2355 0.37626 14.617L7.95521 7.08196L0.456887 1.26379Z" fill="#857A6B"/>
</svg>
