<?xml version="1.0" encoding="UTF-8"?>
<svg id="Layer_1" xmlns="http://www.w3.org/2000/svg" xmlns:xlink="http://www.w3.org/1999/xlink" version="1.1" viewBox="0 0 241 198">
  <!-- Generator: Adobe Illustrator 30.6.0, SVG Export Plug-In . SVG Version: 2.1.4 Build 109)  -->
  <defs>
    <style>
      .st0 {
        fill: none;
      }

      .st1 {
        mask: url(#mask);
      }

      .st2 {
        fill: #fffffa;
      }

      .st3 {
        fill: #d9d9d9;
      }

      .st4 {
        fill: #fff;
      }

      .st5 {
        fill: url(#radial-gradient);
        fill-opacity: .2;
      }

      .st6 {
        clip-path: url(#clippath);
      }
    </style>
    <clipPath id="clippath">
      <rect class="st0" x="-11.78" y="-45.84" width="282.32" height="285.03" transform="translate(-25.8 51.91) rotate(-20.68)"/>
    </clipPath>
    <mask id="mask" x="-53.01" y="-86.5" width="364.78" height="366.36" maskUnits="userSpaceOnUse">
      <g id="mask0_147_1323">
        <g class="st6">
          <g>
            <path class="st4" d="M210.53,145.8c-.27-.22-.57-.35-.92-.41-.34-.06-.69-.01-1.03.12-.35.13-.63.33-.85.6-.15.18-.26.38-.34.6.12.14.22.29.31.45,0-.03,0-.07,0-.1.04-.26.15-.5.32-.71.18-.21.4-.37.69-.47.28-.11.55-.14.82-.1.27.04.51.15.71.32.21.18.36.4.46.67.1.27.14.55.1.82-.04.26-.15.5-.32.71-.17.21-.4.37-.69.47-.29.11-.56.14-.83.1-.27-.04-.51-.15-.71-.32-.09-.08-.17-.17-.25-.27.01.19,0,.38-.02.56.26.21.57.34.9.4.34.06.69.02,1.04-.11.35-.13.63-.33.85-.6.22-.27.36-.57.42-.91.06-.34.02-.67-.1-1-.12-.33-.32-.6-.58-.81h0Z"/>
            <path class="st4" d="M207.8,147.87c-.09-.24-.12-.47-.1-.71-.09-.16-.19-.31-.31-.45-.03.1-.06.2-.08.31-.06.34-.02.67.1,1,.12.32.32.6.59.82,0,0,0,0,0,0,.03-.19.04-.38.02-.56-.09-.12-.16-.25-.22-.41Z"/>
            <path class="st4" d="M209.07,147.62l.32-.12.61.45.47-.18-.67-.47c.08-.08.13-.17.15-.28.02-.1,0-.21-.03-.32-.05-.15-.15-.25-.28-.31-.13-.07-.28-.07-.44,0l-.94.36.62,1.63.41-.16-.23-.6h0ZM208.81,146.94l.45-.17c.05-.02.1-.02.14,0,.04.02.07.05.09.1.02.05.02.09,0,.13-.02.04-.05.07-.11.09l-.45.17-.12-.32Z"/>
            <path class="st2" d="M-29.68,21.68l-1.58-4.19-1.29.17-14.97,10.08,1.86,4.71,15.99-10.76Z"/>
            <path class="st2" d="M-32.04,15.43l-1.79-4.76-19.11,2.49,1.72,4.77,17.9-2.33,1.29-.17Z"/>
            <path class="st2" d="M3.42,109.38l-1.29.17-14.98,10.08,1.86,4.71,15.99-10.76-1.58-4.2Z"/>
            <path class="st2" d="M2.64,107.32l-1.79-4.76-19.11,2.49,1.72,4.77,17.9-2.33,1.29-.17Z"/>
            <path class="st2" d="M-24.95,6.61l-7.74.92L7.98,115.28l6.42-4.42L-24.95,6.61Z"/>
            <path class="st2" d="M19.99,59.19c2.26-2.49,3.38-6.27,4.29-9.28,0,0,1.17-5.83,1.18-5.86,0-.07,0-.25,0-.25.02-.2.01-.3,0-.36-.01-.03-.03-.05-.05-.05-2.24.2-5.43,0-7.9-2.14-.02-.03-.03-.04-.04-.04-.02,0-.08.05-.1.09-1.07,4.08-2.11,8.44-2.09,12.94l.03.65c.11,1.8.23,4.05,2.03,5,.85.49,1.93-.11,2.66-.69h0Z"/>
            <path class="st2" d="M117.55.61c1.38-.93,4.75-5.78,5.88-12.4l-8.27,1.08c-.61,2.22-1.03,4.51-1.21,6.81-.26,5.63,2.32,5.32,3.61,4.51h0Z"/>
            <path class="st2" d="M60.58,43.94c.46.11,1.02-.14,1.31-.36,1.89-2.21,2.66-4.6,3.27-7.33,0,0,.46-1.92.46-1.91,1.25-6.57,2.48-13.79,3.46-20.09-.43-.8-2.15-1.49-4.28,2.43-.63,1.17-2.67,7.44-3.32,9.73-2.67,9.05-2.46,14.78-1.98,16.48.15.53.51.93,1.07,1.05Z"/>
            <path class="st2" d="M160.53-2.45c-2.41,4.9-5.31,9.66-7.98,13.45-.15,1.99-.28,4.05-.28,6.14l8.71-5.86c1.67-7.02,4.03-14.74,8.65-20.34,1.35-1.59,3.65-3.04,5.74-2.66.49.09,1.89.86,2.4,1.26,0,0,.25-1.47.35-2.17l6.94-2.66-1.86,11.61,29.27-19.7-45.61,5.93c-1.57,4.37-3.75,9.74-6.33,14.99h0Z"/>
            <path class="st2" d="M97.85,41.06c1.08,3.52,3.22,5.74,5.91,6.15,4.3.73,7.27-3.49,9.12-6.76,2.04-3.83,3.6-8.81,4.1-13.43.68-6.24-.69-11.92-2.96-11.81-2.54.26-3.68,3.42-4.13,5.29-1.33,4.63-.33,8.83-.33,8.83-3.25,3.2-5.5,7.6-6.46,10.12-1.08-4.38-1.3-7.31-1.06-11.07.41-7.26,4.04-13.62,9.28-16.19,1.64-.72,3.54-.45,4.73.69,2.58,2.4,3.14,6.64,3.34,9.7.04,6.92-1.63,13.89-4.56,19.76l7.1-4.78c-.7-4.01-.25-8,.29-11.78,1.5-6.86,3.95-15.41,9.61-20.68,1.23-1.23,3.29-2.48,5.43-2.3,1.92.48,2.94,1.9,3.57,3.54.3.77.51,1.59.7,2.39.45,2.91.24,5.84.03,8.04.55.12,2.95-1.47,3.43-2.25,1.01-10.98,2.82-20.88,5.43-29.83l-24.64,3.21c-1.15,5.6-2.81,11.8-7.76,15.1-1.16.52-2.67.97-4.07-.17-2.67-2.2-2.31-5.98-2.07-8.75.13-1.55.4-3.04.75-4.47l-6.43.84c-2.83,5.93-4.87,12.33-6.73,18.59-2.9,11.9-4.28,21.91-1.62,32.01h0Z"/>
            <path class="st2" d="M164.58-17.15l-7.63.99c-2.36,9.87-3.74,19.31-3.85,22.1,2.44-2.55,7.79-13.32,11.48-23.09Z"/>
            <path class="st2" d="M177.22-7.29c.02-.13.01-.47-.03-.59-.14-.36-.55-.63-.86-.75-1.17-.02-1.92.87-2.56,1.82-2.4,3.95-3.79,8.39-4.79,12.7l6.72-4.52s.01-.05.01-.08c.46-2.83.93-5.76,1.51-8.59h0Z"/>
            <path class="st2" d="M131.17,16.85c-1.38,4.45-2.83,11.71-1.94,15.8l8.14-5.48c.82-2.74,1.34-5.56,1.47-7.46-1.96-.06-5.35-.54-7.66-2.86h0Z"/>
            <path class="st2" d="M139.48,10.03c-.16-.63-.32-1.31-.57-1.95-.39-1.03-.98-1.9-2.02-2.14-1,.04-2.14.72-2.7,1.64-1.46,1.79-2.58,4.67-.95,7.17,1.89,2.91,5.87,2.71,6.01,2.51.39-2.29.48-4.74.26-7.09,0-.03-.03-.15-.03-.15h0Z"/>
            <path class="st2" d="M145.03,22.01c-.02-.52-.04-1.06-.05-1.61,0,0-.11-2.62-.12-2.93-.04,0-.06,0-.08,0-1.38,1-3.4,1.81-3.54,1.88-.33,1.96-.7,3.98-1.17,6.01l4.96-3.34Z"/>
            <path class="st2" d="M24.5,41.07l.62-.13c.38-.05.7-.09.84-.3,0,0,.19-3.44.19-3.47-.04-1.49-.18-3.04-.67-4.29-.35-.93-.89-1.68-1.71-2.11-1.2-.36-2.67.61-3.44,1.7-.77,1.21-2.38,4.3-.72,6.84.97,1.26,2.83,1.92,4.89,1.76h0Z"/>
            <path class="st2" d="M37.73,69.81c15.82-11.5,27.08-14.83,37.07-12.87,4.31.84,9.51,2.29,12.63,3.85l9.73-6.55c-.4-.12-.8-.28-1.2-.46-6.28-2.85-8.69-10.81-8.85-16.77-.59-8.74.88-18.38,4.64-30.36,2-5.75,4.17-10.78,6.57-15.17L-21.22,7.02l12.03,31.89c2.21-5.42,5.06-10.67,8.49-15.57,3.9-4.95,8.36-9.8,14.39-11.72,1.85-.35,3.58,0,4.88,1.01,3.32,2.92,2.4,7.8,1.54,10.49-.84,2.41-4.12,4.47-5.25,1.08-.74-2.21.47-4.52.95-5.26.62-.84,1.64-1.35,2.27-1.59.4-.76-.59-4.7-5.07-1.58-5.68,4.44-8.69,11.18-11.77,18.9-2.44,6.8-4.08,13.02-4.93,18.83l11.74,31.1c8.5.75,14.28-4.46,29.68-14.79h0ZM81.58,5.4l6.5-2.49-1.36,7.43-6.5,2.5,1.36-7.44ZM9.27,45.61c3.32-11.1,9.66-19.25,14.76-18.22,5.32,1.35,4.37,10.77,4.37,12.21,1.61-.2,5.07-5.28,6.68-9.27,1.29-3.18,3.87-7.62,5.89-9.39,1.46-1.5,4.07-2.83,6.26-2.46,1.45.21,2.79,1.28,3.44,2.72,1.8,3.97-.52,12.53-4.27,10.1-1.05-1.26-1.1-3.04-.14-5.27.49-1.11,1.35-1.87,2.6-2.29.2-.93-.34-1.98-1.29-2.14-.98-.17-2.49.79-3.56,2.49-3.74,6.13-5.8,14.7-5.63,23.22.06,1.58.61,3.81,2.02,4.94,3.66,2.59,7.24-4.33,7.24-4.34,2.45-4.59,4.31-10.34,5.59-15.31,3.34-12.92,9.57-25.36,16-21.28.11.05.29.19.35.22.04-.12.31-1.62.31-1.62l6.84-2.62s-5.11,29.99-5.12,30.04c-.08.7.08,1.69.73,1.9.5.11,1.06-.47,1.06-.47,3.08-3.21,5.76-13.5,5.79-13.54l2.36-.9c-1.72,6.58-3.94,14.45-8.12,20.52-1.19,1.61-2.85,3.47-5.17,3.53-2.68-.47-2.91-2.29-3.55-4.33-.01,0-2.95,8.4-7.93,8.87-1.67.11-4.53-.23-5.05-6.87,0,0-.07-.58-.12-1.01-.26.53-.73,1.49-.73,1.49-2.7,5.67-5.78,12.04-12.18,13.38-5.04.38-6.65-4.18-7.29-5.35-2.05-3.83-.19-13.88-.19-13.92-1.17.86-2.22,1.58-3.12,2.12-.02.16-.63,3.23-.63,3.23-.64,3.4-1.31,6.91-2.68,10.14l-.25.6c-1.89,5.07-7.02,15.14-13.11,11.91-4.42-3.04-5.24-12.98-2.14-22.98h0Z"/>
            <path class="st2" d="M69.7,63.14c-5.96,2.4-6.62,7.83-6.62,7.83-12.1-9.97-31.24,5.78-35.14,8.43-3.91,2.64-9.64,6.76-14.72,9.3-1.05.51-2.09.92-3.14,1.26l6.89,18.25,69.86-47.02c-6.1-1.07-12.85-.13-17.13,1.96Z"/>
            <path class="st2" d="M209.49,147s.02-.09,0-.13c-.02-.05-.05-.08-.09-.1-.04-.02-.09-.02-.14,0l-.45.17.12.32.45-.17c.05-.02.09-.05.11-.09Z"/>
            <path class="st2" d="M208.98,148.87c.27.04.55,0,.83-.1.29-.11.51-.26.69-.47.17-.21.28-.45.32-.71.04-.27,0-.54-.1-.82-.1-.28-.26-.5-.46-.67-.2-.17-.44-.28-.71-.32-.27-.04-.54,0-.83.1-.28.11-.51.26-.69.47-.18.21-.28.45-.32.71,0,.03,0,.07,0,.1-.02.24.01.47.1.71.06.15.13.29.22.41.07.1.15.19.25.27.2.17.44.28.71.32h0ZM208.27,146.74l.94-.36c.16-.06.3-.06.44,0,.13.06.22.17.28.31.04.11.05.21.03.32-.02.11-.07.2-.15.28l.67.47-.47.18-.61-.45-.32.12.22.6-.41.15-.62-1.63h0Z"/>
            <path class="st2" d="M111.53,156.04c-5.45,1.09-8.18,1.63-13.64,2.72l16.29,43.16c4.81-2.79,7.22-4.18,12.03-6.97l-14.69-38.91Z"/>
            <path class="st2" d="M37.27,148.82l-.84.21-.29-.8-1.06.14-1.05-2.79-13.38,1.6,1.11,2.93-21.24,2.76,3.61,10.02,13.36-1.74-11.18,7.52,3.91,9.91,17.77-11.96,28.45,75.39-21.24,2.76,3.61,10.02,13.36-1.74-11.18,7.52,3.91,9.91,17.77-11.96,1.15,3.04,11.1-7.64-1.1-2.91.88-.6-.29-.73,195.21-131.07-232.36,30.22ZM32.21,148.58l39.35,104.26-6.42,4.42-40.66-107.75,7.74-.92ZM60.57,251.35l1.58,4.2-15.99,10.76-1.86-4.71,14.98-10.08,1.29-.17ZM58,244.54l1.79,4.76-19.19,2.5-1.72-4.77,19.11-2.49h0ZM25.89,159.46l1.58,4.2-15.99,10.76-1.86-4.71,14.98-10.08,1.29-.17ZM23.32,152.64l1.8,4.76-1.29.17-17.9,2.33-1.72-4.77,19.11-2.49ZM168.9,144.61l-1.68-4.46c11.07-1.44,22.14-2.88,33.21-4.33l1.56,4.13c-3.72.96-5.59,1.43-9.31,2.39l-.87-2.31c-3.85.77-5.78,1.15-9.64,1.92l2.51,6.66c4.75-1.61,7.13-2.41,11.88-4.02l1.04,2.75c-4.63,1.93-6.94,2.9-11.57,4.84l2.51,6.66c3.4-1.97,5.1-2.95,8.5-4.93l-.87-2.3c2.55-1.3,4.15-2.12,6.21-3.17.2-.1.4-.2.6-.31.26-.13.53-.27.82-.41.17-.09.35-.18.53-.27.13-.07.26-.13.4-.2l1.56,4.13c-9.26,6.24-18.53,12.47-27.79,18.7l-1.68-4.44,3.12-1.81-7.52-19.93c-1.42.28-2.12.42-3.53.71h0ZM207.99,148.83c-.26-.21-.46-.49-.59-.82-.12-.33-.16-.66-.1-1,.02-.11.05-.21.08-.31.07-.22.19-.42.34-.6.22-.27.5-.46.85-.6.35-.13.69-.17,1.03-.12.34.05.65.19.92.41.27.22.46.49.58.81.12.32.16.66.1,1-.06.34-.2.64-.42.91-.22.27-.5.47-.85.6-.35.13-.69.17-1.04.11-.34-.05-.64-.19-.9-.4,0,0,0,0,0,0h0ZM168.18,170.67c1.57-.91,2.36-1.37,3.94-2.28l1.81,4.8c-5.83,3.92-8.74,5.88-14.57,9.81l-2.23-5.91c.62-.36.93-.54,1.54-.89-4.56-2.48-6.92-3.92-11.78-7.21l4.35,11.52c1.25-.72,1.87-1.08,3.12-1.81l2.31,6.12c-5.83,3.92-8.74,5.88-14.57,9.81l-2.73-7.24c1.31-.76,1.97-1.14,3.28-1.9l-12.51-33.14c-1.48.3-2.23.44-3.71.74l-2.72-7.21c6.96-.91,10.45-1.36,17.41-2.27l2.3,6.1c-1.42.28-2.12.42-3.54.7l4.36,11.54c1.49-5.69,2.31-8.34,4.1-13.23-.72.14-1.07.21-1.78.36l-2.23-5.91c6.97-.91,10.45-1.36,17.42-2.27l1.81,4.8c-1.78.36-2.68.53-4.46.89-2.71,5.73-3.93,8.95-6.1,16.09,6.35,3.91,9.38,5.52,15.19,8.02h0ZM120.4,152.37l14.91,39.5c-1.69,3.87-2.5,5.88-4.07,10.05-6.21,4.18-9.31,6.27-15.52,10.45-3.58-1.15-5.4-1.81-9.1-3.26l-19.14-50.71c1.81-3.55,2.74-5.24,4.66-8.5,7.42-.97,11.13-1.45,18.55-2.41,3.94,2.1,5.88,3.08,9.71,4.88h0ZM48.45,165.54c1.51-4.34,2.29-6.43,3.92-10.46,7.71-1,11.57-1.5,19.28-2.51,4.23,2.87,6.32,4.24,10.44,6.82l3.87,10.25c-3.74.96-5.61,1.43-9.35,2.39l-3.17-8.39c-5.74,1.14-8.61,1.72-14.35,2.86l20.85,55.26c5.06-2.93,7.6-4.4,12.66-7.33l-3.17-8.39c3.44-1.75,5.16-2.63,8.59-4.38l3.88,10.29c-1.4,4.64-2.06,7.04-3.35,11.98-6.45,4.34-9.68,6.51-16.13,10.85-3.88-1.94-5.85-2.98-9.84-5.22l-24.15-63.99Z"/>
            <path class="st2" d="M224.63,2.64l1.58,4.2,19.11-2.48-1.72-4.77-17.9,2.33-1.08.72Z"/>
            <path class="st2" d="M239.91-10.22l-1.86-4.71-15.99,10.76,1.79,4.76,1.08-.72,14.98-10.08Z"/>
            <path class="st2" d="M259.31,94.54l1.58,4.2,19.11-2.48-1.72-4.77-17.9,2.33-1.08.72Z"/>
            <path class="st2" d="M256.74,87.72l1.8,4.76,1.08-.73,14.98-10.08-1.86-4.71-15.99,10.76Z"/>
            <path class="st2" d="M252.05,102.91l7.74-.93L219.12-5.77l-6.42,4.41,39.35,104.26Z"/>
            <path class="st2" d="M210.18,1.42L14.68,133l233.69-30.4L210.18,1.42ZM209.14,4.71l36.28,96.12-61.25,7.97c1.88-.97,3.82-2.67,5.31-5.59.11-.27.15-.2.2-.04.76,1.91,1.8,3.29,5.51,1.57,1.92-1.05,3.65-2.14,5.14-5.69.12-.27.17-.2.24-.02,2.8,5.28,15.5-.59,9.34-6.92l2.07-1.18c1.51,1.71,3.1,3.33,4.35,4.44,1.54,1.37,2.86.63,3.36-1.03.44-1.08,1.04-2.77,1.3-3.59.24-.75.68-.98,1.24-.5,1.39.9,2.4,1.53,3.18,1.91,1.79,1.16,3.23,0,4.91-2.16,1.04-1.45,1.75-3.01,2.2-4.79.17-1.41-1.16-1.31-2.02.02-.45.72-1.04,1.5-1.43,1.85-.65.67-1.39.76-2.3.21-1.04-.63-2.8-1.73-3.83-2.29-.85-.47-2.13-.39-2.93,1.12-.3.71-.89,1.99-1.18,2.76-.26.79-.5,1.1-1.15.44-.56-.53-1.15-1.21-1.79-1.75-.39-.33-.65-.77-2.27.11-1.89,1.22-4.16,2.75-6.47,3.77-1.06.43-2.11.68-.66,1.92.76.78.91,2.12.69,3.11-.21.97-1.3,1.57-2.38.39-.84-.93-1.1-2.21-.77-3.44.11-.41.26-.94.97-1.55.91-.68.99-1.91-.89-1.11-1.88.57-3.33,1.99-4.16,4.48-.65,1.81-2.19,4.19-3.48,5.42-.72.77-1.54,1.16-1.95.04-.43-1.01-1.3-3.38-1.59-4.13-.25-.73-.28-.83-1.51-.45-.94.26-2.15.76-2.84,1.13-.51.27-.78.74-.64,1.1l.61,1.61c-.36,1.74-2.13,4.7-4.28,5.62-.26.1-.7.45-.53-.53.81-4.77-4.3-5.32-7.39-2.72-1.41,1.19-2.39,2.82-2.84,4.67-.09.32-.14.04-.14.04l-1.16-3.02c-.08-.23-.33-.47-.76-.35-.69.14-1.3.41-2.09.8-.26.08-.4.39-.41.63,0,0-.24,3.19-1.62,5.17-.66.92-.87.89-1.57.52-1.34-.72-3.76-1.82-4.59-2.35-1.02-.63-2.15-.35-2.61,1.02-.22.53-.65,1.85-.92,2.76l4.35-.57-10.93,1.42,3.96-.51c-.57-.36-1.14-.72-1.76-1.1-.85-.58-2.13-.62-2.8,1-.06.18-.14.43-.23.71l-126.76,16.49,69.43-46.73c1.44,1.42,3.21.93,3.99-1.57.22-.66.38-1.11.51-1.45l1.6-1.08c.63.47,1.61,1.33,2.13,1.57.95.57,2.42.72,4.44-1.69.67-.73,1.71-2.67,1.79-2.85.09-.2.33-.71.44-.23.37,1.65,3.5,3.36,7.07.12.72-.78,1.22-1.39,1.42-1.98.08-.24.16-.63.59-.24,2.39,1.7,3.48,1.42,4.81-1.18.69-1.15,1.99-3.52,2.09-3.72.23-.41.41-.78.98-.41,1.35.95,1.87,1.26,2.87,1.92,1.59,1.02,2.83.82,3.63-1.32.37-1,.79-2.04,1.05-2.98.16-.6.44-.89,1.02-.44.93.63,2.07,1.37,2.78,1.77,1.12.83,2.55.64,3.06-1.21.35-1.13.71-2.05.92-2.91.2-.93.47-.91,1.24-.45.75.46,2.46,1.41,2.46,1.41,1.99,1.23,3.39.07,4.93-1.8.89-1.22,1.49-2.29,2.11-3.75,1.29,3.49,3.86,10.47,5.44,12.99.27.35.44.35.82.26.96-.23,1.57-.53,2.27-1.11.33-.27.39-.43.17-.99-2.25-5.16-4.64-10.08-2.52-14.58,3.31-5.62,5.33,1.79,1.53,2.24-1.04.3-.44.99.46,1.12,2.07.33,7.72-.06,11.08-6.66.11-.27.15-.2.2-.04.76,1.91,1.81,3.29,5.51,1.57,1.92-1.05,3.65-2.14,5.14-5.69.12-.27.17-.2.24-.02,2.8,5.28,15.5-.59,9.34-6.92l2.07-1.18c1.51,1.71,3.1,3.33,4.35,4.44,1.54,1.37,2.86.63,3.36-1.03.44-1.08,1.04-2.77,1.3-3.59.24-.75.68-.98,1.24-.5,1.39.9,2.4,1.53,3.18,1.91,1.79,1.16,3.23,0,4.91-2.16,1.04-1.45,1.75-3.01,2.2-4.79.17-1.41-1.16-1.31-2.02.02-.45.71-1.04,1.5-1.43,1.85-.65.67-1.39.76-2.3.21-1.05-.63-2.8-1.73-3.83-2.29-.85-.47-2.14-.39-2.93,1.12-.31.71-.89,1.99-1.18,2.76-.26.79-.5,1.1-1.15.44-.56-.53-1.15-1.21-1.79-1.75-.39-.33-.65-.77-2.27.11-1.89,1.22-4.16,2.75-6.47,3.77-1.06.43-2.11.68-.66,1.92.76.78.91,2.12.69,3.11-.21.97-1.3,1.57-2.38.39-.84-.93-1.1-2.21-.77-3.44.11-.41.26-.94.97-1.55.91-.68.99-1.91-.89-1.11-1.88.57-3.33,1.99-4.16,4.48-.65,1.81-2.19,4.19-3.48,5.42-.72.77-1.54,1.16-1.95.04-.43-1.01-1.3-3.38-1.59-4.13-.25-.73-.28-.83-1.51-.45-.94.26-2.15.76-2.84,1.13-.51.27-.78.74-.64,1.1l.61,1.61c-.36,1.74-2.13,4.7-4.28,5.62-.25.1-.7.45-.53-.53.81-4.77-4.3-5.32-7.39-2.71-1.41,1.19-2.39,2.82-2.84,4.67-.09.32-.14.04-.14.04l-1.16-3.02c-.08-.23-.33-.47-.76-.35-.69.14-1.3.41-2.09.8-.26.08-.4.39-.41.63,0,0-.24,3.19-1.62,5.17-.66.92-.87.89-1.57.52-1.34-.72-3.76-1.82-4.59-2.35-1.02-.63-2.15-.35-2.61,1.02-.32.78-1.09,3.26-1.18,3.61-.21.79-.38.76-.91.4-1.11-.69-2.09-1.33-3.21-2.01-.85-.58-2.13-.62-2.8,1-.26.75-.8,2.58-1.04,3.47-.26.81-.36,1.06-1.28.48-1.04-.66-1.75-1.11-2.76-1.75-1.23-.79-2.44-.48-3.09.91-.74,1.6-1.77,3.69-2.37,5.05-.31.66-.57,1.07-1.37.42-.73-.51-2.14-1.35-2.92-1.75-.19-.1-.58-.12-.93-.01L209.13,4.7h0ZM175.59,109.91c.04-1.16.29-2.3.81-3.41,3.31-5.62,5.33,1.79,1.53,2.24-.74.21-.65.62-.21.89l-.93.12-6.87.9c.1-.23.21-.46.32-.71.08.2.16.41.24.63l5.12-.66h0ZM111.64,72.07c-.09-.64-.01-1.28.23-1.9l2.74-1.84c-.17.23-.25.55-.19.97.67,2.05.24,3.16-.52,3.76-1.25.98-2.1.11-2.27-.98h0ZM105.41,74.52c-.12.18-.23.35-.35.54-.36.57-.69.98-1.4.65l1.76-1.18h0Z"/>
            <path class="st2" d="M98.19,106.9c-1.83,1.99-7.15,5.65-9.69,6.83-.52.26-.59.26-.69-.04l-5.33-14.11c-.26-.64-.29-.65.21-.81.47-.16.81-.24,1.29-.34,2.18-.5,4.83-.69,6.33-.75.65-.03.95-.04,1.66-.05.25,0,.92-.01,1.21-.02.45-.03.69.13.25-.64-.48-.74-1.24-1.14-2.67-1.56-8.03-2.35-21.44,3.01-26.37,8.78-8.42,9.66-1.48,17.61,7.05,17.85,7.18.28,20.1-2.51,26.44-13.39.19-.34.56-1,.78-1.64.28-.83-.13-.5-.47-.1h0ZM71.16,103.05c.47-.24.47-.18.7.47l5.37,14.23c.12.3,0,.35-.33.47-14.82,3.68-17.21-9.42-5.74-15.17h0Z"/>
            <path class="st2" d="M220.78,59.52c-.45.71-1.04,1.5-1.43,1.85-.65.67-1.39.76-2.3.21-1.05-.63-2.8-1.73-3.83-2.29-.85-.47-2.14-.4-2.93,1.12-.31.71-.89,1.99-1.18,2.76-.26.79-.5,1.1-1.15.44-.56-.53-1.15-1.21-1.79-1.75-.39-.33-.65-.77-2.27.11-1.89,1.22-4.16,2.75-6.47,3.77-1.06.43-2.11.68-.66,1.93.76.78.91,2.12.69,3.11-.21.97-1.3,1.57-2.38.39-.84-.93-1.1-2.21-.76-3.44.11-.41.26-.94.97-1.55.91-.68.98-1.91-.89-1.11-1.88.57-3.33,1.99-4.16,4.48-.65,1.81-2.19,4.19-3.48,5.42-.72.77-1.54,1.16-1.95.04-.43-1.01-1.3-3.38-1.58-4.13-.25-.73-.28-.83-1.51-.45-.95.26-2.15.76-2.84,1.13-.51.27-.78.74-.64,1.1l.61,1.61c-.36,1.74-2.13,4.7-4.28,5.62-.25.1-.7.45-.53-.53.81-4.77-4.3-5.32-7.39-2.71-1.41,1.19-2.39,2.82-2.84,4.67-.09.32-.14.04-.14.04l-1.16-3.02c-.08-.23-.33-.47-.76-.35-.69.14-1.3.41-2.09.8-.26.08-.4.39-.41.63,0,0-.24,3.19-1.62,5.17-.66.92-.87.89-1.57.52-1.34-.72-3.76-1.82-4.59-2.35-1.02-.63-2.15-.35-2.61,1.02-.32.78-1.09,3.26-1.18,3.61-.21.79-.38.76-.91.4-1.11-.69-2.09-1.33-3.22-2.01-.85-.58-2.13-.62-2.8,1-.26.75-.8,2.58-1.04,3.47-.26.81-.36,1.06-1.28.48-1.04-.66-1.75-1.11-2.75-1.75-1.23-.79-2.44-.48-3.09.91-.74,1.6-1.77,3.69-2.37,5.05-.31.66-.57,1.07-1.37.42-.73-.51-2.14-1.35-2.92-1.75-.47-.24-2.01-.04-1.76,1.39.67,2.05.24,3.16-.52,3.76-1.25.98-2.1.11-2.27-.98-.19-1.36.35-2.74,1.73-3.86.71-.51.67-1.56-.84-1.07-2.49,1.01-4.53,3.4-7.47,7.91-.45.72-.85,1.18-2.04.24-1.04-.88-2.48-2.09-2.9-2.44-.65-.56-1.89-.83-2.69.68-.8,1.5-1.76,3.23-2.04,4.1-.1.27-.32.92-.73.04-1.36-3.31-4.24-10.96-4.24-10.96-.15-.41-.17-.58-.76-.35-.68.2-1.66.66-2.47,1.03-.25.11-.48.36-.41.63.78,3.48,3.54,10.99,5.21,13.71,1.5,2.77,3.94,2.72,4.88-.34.42-1.27.65-1.76.79-2.25.23-.79.45-.87,1.06-.48.58.37,1.8,1.48,2.41,1.76.95.57,2.42.72,4.44-1.69.67-.73,1.71-2.68,1.79-2.85.09-.2.33-.71.44-.23.37,1.65,3.5,3.36,7.07.12.72-.78,1.22-1.39,1.42-1.98.08-.24.16-.63.59-.24,2.39,1.7,3.48,1.42,4.81-1.18.69-1.15,1.99-3.52,2.1-3.72.23-.41.41-.78.98-.41,1.35.95,1.87,1.26,2.87,1.92,1.59,1.02,2.83.82,3.63-1.32.37-1,.79-2.04,1.05-2.98.17-.6.44-.89,1.03-.44.93.63,2.07,1.37,2.78,1.77,1.12.83,2.55.64,3.06-1.21.35-1.13.71-2.05.92-2.91.2-.93.47-.91,1.24-.45.75.46,2.46,1.41,2.46,1.41,1.99,1.23,3.38.07,4.93-1.8.89-1.22,1.49-2.29,2.11-3.75,1.29,3.49,3.86,10.47,5.44,12.99.27.35.44.35.82.26.96-.23,1.57-.53,2.27-1.11.33-.27.39-.43.17-.99-2.25-5.16-4.64-10.08-2.52-14.58,3.31-5.62,5.33,1.79,1.53,2.24-1.04.3-.44.99.46,1.12,2.07.33,7.72-.06,11.08-6.66.11-.27.15-.2.2-.04.76,1.91,1.8,3.29,5.51,1.57,1.92-1.05,3.65-2.14,5.14-5.69.12-.27.17-.2.24-.02,2.8,5.28,15.5-.59,9.34-6.92l2.07-1.18c1.51,1.71,3.1,3.33,4.35,4.44,1.54,1.37,2.86.63,3.37-1.03.44-1.08,1.04-2.77,1.3-3.59.24-.75.68-.98,1.24-.5,1.39.9,2.4,1.53,3.18,1.91,1.79,1.16,3.23,0,4.91-2.16,1.04-1.45,1.75-3.01,2.2-4.79.17-1.41-1.16-1.31-2.02.02h0Z"/>
            <path class="st2" d="M179.85,69.72c1.48-.56,2.34-1.92,1.92-3.04-.42-1.12-1.97-1.58-3.45-1.02-1.48.56-2.34,1.92-1.92,3.04.42,1.12,1.97,1.58,3.45,1.02Z"/>
            <path class="st2" d="M170.14,44.01c1.48-.56,2.34-1.92,1.92-3.04-.42-1.12-1.97-1.58-3.45-1.02-1.48.56-2.34,1.92-1.92,3.04s1.97,1.58,3.45,1.02Z"/>
            <path class="st2" d="M201.19,12.85c.92-1.28,1.57-2.64,2.03-4.15l-8.27,5.57c.51.31.95.56,1.34.75,1.79,1.16,3.23,0,4.91-2.16Z"/>
            <path class="st2" d="M149.92,44.57l-1.91,1.28c.62-.21,1.1-.49,1.63-.93.15-.13.25-.23.28-.36h0Z"/>
            <path class="st2" d="M190.55,17.22l-2.39,1.61c1.1.39,1.98-.32,2.39-1.61Z"/>
            <path class="st2" d="M188.02,91.38c-1.48.56-2.34,1.92-1.92,3.04.42,1.12,1.97,1.58,3.45,1.02,1.48-.56,2.34-1.92,1.92-3.04-.42-1.12-1.97-1.58-3.45-1.02Z"/>
            <path class="st2" d="M109.05,117.81c-.68.2-1.67.66-2.47,1.03-.04.01-.08.04-.11.06l3.46-.45c-.07-.19-.11-.3-.11-.3-.15-.41-.17-.58-.76-.35h0Z"/>
            <path class="st4" d="M131.42,225.58c-1.96-.41-4.04.13-6.22,1.61-2.1,1.43-3.49,3.07-4.2,4.95-.7,1.88-.57,3.54.39,4.96.83,1.22,1.93,1.91,3.3,2.07,1.27.14,2.52-.21,3.73-1.03,1.27-.87,2.18-2.04,2.71-3.53.35-.98.48-1.75.4-2.31-.01-.08-.04-.15-.08-.2-.07-.1-.14-.13-.21-.08-.06.04-.1.12-.12.24-.23,1.07-.9,1.98-2.01,2.73-.97.66-1.96.99-2.97,1-1.11.01-1.95-.4-2.51-1.23-.68-1.01-.87-2.07-.57-3.19.34-1.21,1.24-2.31,2.68-3.29,1.38-.93,2.72-1.21,4.05-.84,1.18.35,2.21,1.17,3.1,2.48,1.49,2.2,2.1,4.78,1.85,7.74-.29,3.26-1.64,5.7-4.05,7.34-1.98,1.35-4.02,1.79-6.11,1.35-1.38-.29-2.48-.82-3.29-1.59-.36-.35-.57-.5-.63-.46-.11.08-.13.3-.05.67.08.46.26.9.56,1.34,1.12,1.66,2.79,2.61,5.01,2.85,2.22.24,4.32-.3,6.28-1.64,2.08-1.41,3.6-3.32,4.54-5.73.88-2.17,1.19-4.47.95-6.92-.23-2.33-.91-4.35-2.07-6.05-1.21-1.79-2.7-2.87-4.47-3.24h0Z"/>
            <path class="st4" d="M145.96,229.35s-.06.53-.1,1.54c-.04,1.22-.13,2.18-.26,2.89-.18,1.1-.49,1.79-.9,2.08-.52.35-.98.24-1.37-.34-.31-.45-.59-1.6-.84-3.44-.09-.7-.31-2.62-.64-5.77.35-.23.62-.43.81-.58.14-.1.26-.17.32-.22.35-.23.6-.63.75-1.19.15-.56.1-1.02-.14-1.38-.16-.23-.43-.2-.83.09l-1.17.79c-.2-1.88-.36-2.92-.5-3.13-.19-.29-.54-.49-1.04-.6-.57-.12-1.08-.03-1.53.27-.2.14-.14,1.88.2,5.21-.06.04-.22.18-.5.43-.28.25-.46.41-.56.48-.1.07-.23.16-.39.27-.16.11-.26.17-.28.19-.13.09-.17.19-.11.3.07.17.26.47.56.92.26.39.8.38,1.59-.03l.06.66c.32,3.13.52,4.93.59,5.41.31,2.33.69,3.82,1.13,4.48.4.6,1.07.88,1.99.84.85-.03,1.65-.3,2.42-.82.56-.38,1-1.29,1.31-2.74.23-1.13.36-2.41.39-3.83.03-1.27-.02-1.99-.14-2.17-.35-.52-.63-.72-.81-.59h0Z"/>
            <path class="st4" d="M146.91,219.32c.13-1.27-.15-2.41-.82-3.42-.37-.55-.81-.92-1.32-1.11-.51-.19-1-.12-1.48.21-.58.39-.91.98-1.01,1.75-.1.78.05,1.46.44,2.04.27.41.64.68,1.08.81.45.13.87.07,1.27-.18.04.03.08.07.11.12.24.35.28.86.13,1.53-.15.67-.47,1.18-.96,1.51-.07.05-.07.13,0,.25.08.12.21.11.4-.02,1.26-.86,1.97-2.01,2.14-3.49h0Z"/>
            <path class="st4" d="M158.07,221.6c-.05-.07-.12-.08-.2-.02.01,0,0,.07-.04.24-.04.17-.16.32-.35.44-.14.1-.33.18-.56.25-.4-1-.7-1.73-.89-2.2-.32-.82-.57-1.95-.74-3.38-.14-1.33-.24-2.05-.32-2.16-.22-.34-.66-.29-1.29.15-.46.31-.87.95-1.23,1.92-.39,1.07-.58,2.23-.57,3.47.01,1.24-.07,2.61-.25,4.12-.35.17-.67.36-.95.55-1.08.74-1.72,1.76-1.91,3.08-.18,1.23.06,2.33.71,3.3.66.97,1.53,1.52,2.62,1.63,1.02.11,2.03-.17,3.01-.84,1.01-.69,1.75-1.63,2.22-2.84.54-1.35.65-2.82.31-4.41.06-.04.11-.08.17-.12.45-.3.72-.75.8-1.34.09-.59-.08-1.18-.51-1.79l-.03-.04h0ZM154.71,229.23c-.21.76-.58,1.32-1.13,1.69-.46.31-.91.43-1.33.35-.42-.08-.76-.3-1-.67-.31-.47-.4-.99-.27-1.57.14-.67.55-1.23,1.23-1.69.48-.32,1.29-.7,2.44-1.12.3,1.13.32,2.13.07,3.01h0ZM153.78,223.59c-.39.14-.73.25-1.01.33.12-1.1.19-1.94.19-2.52h.1c.29.89.52,1.62.72,2.18Z"/>
            <path class="st4" d="M171.46,213.5c-.04,1.22-.13,2.18-.26,2.89-.18,1.1-.49,1.79-.9,2.08-.52.35-.98.24-1.37-.34-.3-.45-.58-1.6-.84-3.44-.09-.7-.31-2.62-.64-5.77.35-.23.62-.43.81-.58.14-.1.25-.17.32-.22.35-.23.6-.63.74-1.19.15-.56.1-1.02-.14-1.38-.16-.23-.43-.2-.83.08l-1.17.79c-.2-1.88-.36-2.92-.5-3.13-.19-.29-.54-.49-1.04-.6-.57-.12-1.08-.03-1.52.27-.2.14-.14,1.88.2,5.21-.06.04-.22.18-.5.43-.27.25-.46.41-.56.48-.1.07-.23.16-.39.26-.16.11-.25.17-.28.19-.13.09-.17.19-.11.3.07.17.26.47.56.92.26.39.8.38,1.59-.03l.06.66c.32,3.13.52,4.93.59,5.41.31,2.33.69,3.82,1.13,4.48.4.6,1.07.88,1.99.84.85-.02,1.65-.3,2.42-.82.56-.38,1-1.29,1.31-2.74.08-.42.15-.86.21-1.32-.2-.91-.46-2.61-.79-5.12-.02.22-.05.68-.08,1.39h0Z"/>
            <path class="st4" d="M182.08,205.68c-.03.49-.08,1.17-.14,2.04-.14,1.98-.43,3.12-.88,3.43-.33.23-.6.19-.81-.12-.32-.48-.63-1.9-.92-4.26-.13-1.32-.27-2.65-.41-3.98-.12-.99-.24-1.57-.35-1.73-.13-.19-.48-.22-1.07-.08-.58.13-1.09.34-1.51.63-.51.34-.99,1.71-1.46,4.11-.34,1.72-.54,3.05-.61,4.01l-.05-.03c-.13-.91-.39-3.32-.78-7.24-.32-3.09-.55-4.74-.68-4.94-.18-.26-.54-.35-1.09-.25-.43.08-.77.21-1.02.37-.33.23-.13,3.44.61,9.66.22,1.85.43,3.45.61,4.82,0-.09.02-.14.03-.15.19-.13.46.07.81.6.12.17.16.9.14,2.17-.02.9-.08,1.73-.18,2.51.09.4.16.65.22.74.25.36.64.58,1.18.67.54.08.94.03,1.2-.15.16-.11.2-.57.11-1.38-.14-1.37-.22-2.42-.23-3.16,0-2.74.38-5.74,1.15-8.98h.11c-.03,1.15.05,2.45.25,3.86.29,2.18.79,3.8,1.51,4.86.38.55.88.88,1.53.98.65.1,1.24-.03,1.77-.39.65-.44,1.15-1.39,1.5-2.83.25-1.01.39-2.11.44-3.29-.45-.7-.78-1.52-.99-2.48h0Z"/>
            <path class="st4" d="M172.37,212.56c-.35-.52-.63-.72-.81-.6,0,0-.02.06-.03.15.33,2.51.6,4.22.79,5.12.1-.78.16-1.61.18-2.51.03-1.27-.02-1.99-.14-2.17h0Z"/>
            <path class="st4" d="M190.5,199.13s-.08.6-.16,1.73c-.08,1.35-.26,2.49-.53,3.42-.42,1.37-1.06,2.35-1.91,2.92-.77.52-1.5.26-2.21-.78-.33-.49-.58-1.19-.75-2.09.06-.04.12-.08.2-.13,1.62-1.1,2.67-2.6,3.16-4.5.45-1.71.36-3.03-.28-3.98-.3-.44-.69-.73-1.19-.88-.5-.15-.93-.1-1.27.13-.13.09-.34.29-.62.6-.29.31-.57.57-.86.76-1.38.93-2.12,2.82-2.25,5.66-.06,1.39.03,2.6.26,3.67.04-.62.05-.93.05-.92.19-.13.45.05.78.55.16.23.22,1,.19,2.29,0,.19-.01.38-.02.56.02.03.04.08.07.11.61.9,1.39,1.5,2.33,1.81s1.78.2,2.52-.29c1.08-.74,1.94-1.91,2.58-3.54.48-1.28.77-2.67.87-4.15.1-1.29.03-2.1-.18-2.42-.32-.48-.57-.66-.75-.54h0ZM184.88,198.95c.21-1.25.5-2.01.88-2.26.26-.18.48-.14.64.11.41.61.43,1.58.04,2.9-.38,1.32-.95,2.38-1.71,3.16-.11-1.35-.06-2.65.15-3.9h0Z"/>
            <path class="st4" d="M182.91,205.31c-.33-.49-.6-.68-.78-.55.01,0,0,.3-.05.92.21.96.55,1.78.99,2.48,0-.19.02-.37.03-.56.03-1.29-.03-2.06-.19-2.29h0Z"/>
            <path class="st4" d="M204.9,190.05c0,.12-.01.25-.01.4-.04.94-.08,1.66-.13,2.15-.17,1.84-.53,2.94-1.06,3.3-.2.14-.38.1-.53-.12-.51-.75-.82-2.09-.94-4.01-.09-1.51-.06-2.78.1-3.83,0-.09.1-.49.29-1.21.1-.41.1-.69,0-.86-.19-.27-.59-.52-1.2-.72-.61-.21-1.07-.21-1.36-.02-.04.03-.36.28-.94.76-.58.48-1.08.86-1.48,1.13-.32.22-.51.27-.58.17,0,.01,0-.07-.02-.27-.03-.19-.1-.38-.22-.55-.26-.38-.55-.46-.88-.23-.42.29-.66.62-.72,1-.05.27-.01.71.13,1.31.05.26.22.87.5,1.82.24.79.41,1.53.51,2.2.16,1.17.24,2.33.24,3.5,0,.29.05.5.13.61.3.44.55.58.77.43.09-.06.13-.17.12-.34,0-2.8-.03-4.93-.11-6.39,0-.06.04-.12.13-.18.17-.12.43-.22.78-.3.34-.08.52-.11.55-.09,0-.01,0,.54.02,1.67.03,1.3.11,2.43.24,3.4.21,1.41.53,2.42.95,3.05.51.76,1.13,1.19,1.86,1.3.73.11,1.46-.08,2.18-.57.56-.38,1-1.28,1.31-2.7.22-.96.34-2.05.39-3.25-.47-.72-.8-1.58-1.01-2.58h0Z"/>
            <path class="st4" d="M213.26,184.4c-.02.25-.04.57-.07.95-.08,1.35-.26,2.49-.54,3.42-.42,1.37-1.06,2.35-1.91,2.92-.77.52-1.5.26-2.21-.78-.33-.49-.58-1.19-.74-2.09.06-.04.12-.08.19-.13,1.62-1.1,2.67-2.6,3.16-4.5.45-1.7.36-3.03-.28-3.98-.3-.44-.69-.73-1.19-.88-.5-.15-.93-.1-1.27.13-.13.09-.34.29-.62.6-.29.31-.57.57-.86.76-1.38.93-2.12,2.82-2.25,5.66-.06,1.33.02,2.52.24,3.56.02-.41.04-.62.08-.65.19-.13.46.07.81.59.12.18.17.88.14,2.13,0,.17-.01.33-.02.5.03.04.05.09.08.13.61.9,1.39,1.5,2.33,1.81.94.3,1.78.2,2.52-.29,1.08-.74,1.94-1.91,2.58-3.54.42-1.12.69-2.33.81-3.6-.46-.79-.78-1.7-.96-2.73h0ZM207.72,183.44c.21-1.25.5-2.01.88-2.26.26-.18.48-.14.64.11.41.61.43,1.58.04,2.9-.38,1.32-.95,2.38-1.71,3.16-.11-1.35-.06-2.65.15-3.9h0Z"/>
            <path class="st4" d="M205.78,190c-.35-.52-.62-.72-.81-.6-.03.02-.06.24-.07.65.21,1,.55,1.85,1.01,2.58,0-.17.02-.33.02-.5.02-1.24-.03-1.96-.15-2.13Z"/>
            <path class="st4" d="M224.73,176.42c-.01.24-.03.56-.04.94-.03,1.23-.11,2.2-.22,2.9-.19,1.12-.49,1.82-.89,2.1-.22.15-.41.1-.58-.15-.31-.47-.6-2.26-.85-5.37-.25-3.11-.5-4.86-.76-5.24-.12-.18-.39-.18-.81-.03-.47.19-.7.29-.72.3-.16.11-.31.56-.45,1.34-.14.79-.22,1.18-.24,1.19.01,0-.14-.12-.45-.32-.31-.2-.65-.31-1-.33-.51-.04-1.02.12-1.54.47-1.71,1.16-2.71,3.26-3.01,6.31-.14,1.43-.11,2.72.08,3.85.04-.51.07-.77.09-.78.18-.12.42.06.75.54.22.32.28,1.13.18,2.42-.01.19-.04.37-.05.55.07.12.14.24.22.36.62.92,1.35,1.48,2.21,1.68.78.19,1.49.07,2.13-.36.53-.36.98-.92,1.34-1.67.25-.51.44-1.11.59-1.8.13-.6.18-.89.16-.88-.01,0,.16.13.53.37.41.27.8.44,1.18.52.54.09,1.04-.02,1.49-.32.57-.38,1-1.28,1.31-2.69.17-.85.29-1.77.34-2.78-.39-.79-.72-1.83-1-3.12h0ZM219.12,180.22c-.07,1.52-.27,2.47-.6,2.86l.12.18c.42-.28.68-.36.78-.21.14.2.06.68-.22,1.44-.29.76-.58,1.24-.87,1.43-.45.31-.92.09-1.41-.64-.77-1.14-1.21-2.86-1.31-5.17-.13-2.4.23-3.89,1.07-4.46.26-.18.55-.21.88-.08.32.12.6.35.82.68.6.89.85,2.21.75,3.96h0Z"/>
            <path class="st4" d="M214.09,184.16c-.32-.48-.57-.66-.75-.54-.02.01-.05.28-.09.78.18,1.03.5,1.94.96,2.73.02-.18.04-.37.05-.55.1-1.29.03-2.1-.18-2.42h0Z"/>
            <path class="st4" d="M229.37,170.25c.17-2.28.17-4.68,0-7.2-.15-2.25-.34-3.55-.58-3.9-.13-.19-.41-.27-.84-.26-.43.02-.85.16-1.25.44-1.3.88-2.14,2.85-2.52,5.91-.36,2.65-.33,5.52.11,8.64.13.94.27,1.77.43,2.53.02-.39.05-.6.07-.62.19-.13.46.07.82.6.12.18.17.88.14,2.12,0,.35-.02.68-.04,1.01.12.25.25.49.39.68.36.54.99.89,1.89,1.06.89.17,1.65.04,2.27-.38.85-.58,1.53-1.62,2.03-3.13.4-1.22.64-2.55.72-3.99.07-1.3,0-2.09-.19-2.39-.32-.48-.58-.66-.77-.53-.03.02-.07.62-.14,1.81-.06,1.4-.2,2.55-.39,3.45-.29,1.34-.74,2.22-1.35,2.64-.23.16-.48.22-.75.18-.27-.04-.47-.16-.61-.36-.34-.49-.62-1.16-.87-1.99.72-1.38,1.19-3.49,1.41-6.34h-.01ZM227.16,165.58c.12-2.69.29-4.11.51-4.26.04-.03.08-.02.11.02.2.29.29,1.95.28,4.96,0,3.33-.23,5.77-.69,7.31-.3-2.34-.37-5.02-.21-8.04h0Z"/>
            <path class="st4" d="M225.62,176.4c-.36-.53-.63-.73-.82-.6-.03.02-.05.23-.07.62.28,1.29.61,2.34,1,3.12.02-.33.03-.67.04-1.01.03-1.24-.02-1.95-.14-2.12Z"/>
            <path class="st4" d="M244.43,163.94c-.04,1.22-.13,2.18-.27,2.89-.18,1.1-.49,1.79-.9,2.08-.52.35-.98.24-1.37-.34-.31-.45-.58-1.6-.84-3.44-.09-.7-.31-2.62-.64-5.77.35-.23.62-.43.81-.58.14-.1.25-.17.32-.22.35-.23.6-.63.75-1.19.15-.56.1-1.02-.14-1.38-.16-.23-.43-.2-.83.09l-1.17.79c-.2-1.88-.36-2.92-.5-3.13-.19-.29-.54-.49-1.04-.6-.57-.12-1.08-.03-1.52.27-.2.14-.14,1.88.2,5.21-.06.04-.22.18-.5.43-.27.25-.46.41-.56.48-.1.07-.23.16-.39.26-.16.11-.26.17-.28.19-.13.09-.17.19-.11.3.07.17.26.47.56.92.26.39.8.38,1.59-.03l.06.66c.32,3.13.52,4.93.59,5.41.31,2.33.69,3.82,1.13,4.48.4.6,1.07.88,1.99.84.85-.03,1.65-.3,2.42-.82.56-.38,1-1.29,1.31-2.74.09-.43.15-.88.21-1.35-.19-.92-.46-2.63-.79-5.14-.02.19-.05.67-.08,1.43h0Z"/>
            <path class="st4" d="M255.07,155.95c-.03.49-.08,1.23-.15,2.2-.14,1.98-.43,3.12-.88,3.43-.33.23-.6.19-.81-.12-.32-.48-.63-1.9-.92-4.26-.13-1.32-.27-2.65-.41-3.98-.12-.99-.24-1.57-.35-1.73-.13-.19-.48-.22-1.07-.08-.58.13-1.09.34-1.51.63-.51.34-.99,1.71-1.46,4.11-.34,1.72-.54,3.05-.61,4.01l-.05-.03c-.13-.91-.39-3.32-.78-7.24-.32-3.09-.55-4.74-.68-4.94-.18-.26-.54-.35-1.09-.25-.43.08-.77.21-1.01.37-.33.23-.13,3.44.61,9.66.22,1.83.42,3.42.61,4.78,0-.06.01-.09.02-.1.19-.13.46.07.81.59.12.17.16.9.14,2.17-.02.88-.08,1.7-.18,2.47.09.42.17.68.23.77.25.36.64.58,1.18.67.54.08.94.03,1.2-.15.16-.11.2-.57.11-1.38-.15-1.37-.22-2.42-.23-3.16,0-2.74.38-5.74,1.15-8.98h.12c-.03,1.15.05,2.45.25,3.86.29,2.18.79,3.8,1.51,4.86.38.55.88.88,1.53.98.65.1,1.24-.03,1.77-.4.65-.44,1.15-1.39,1.5-2.83.22-.88.36-1.83.42-2.85-.4-.78-.72-1.81-.97-3.09h0Z"/>
            <path class="st4" d="M245.35,163c-.35-.52-.63-.72-.81-.6,0,0-.01.04-.02.1.33,2.51.6,4.22.79,5.14.1-.77.15-1.59.18-2.47.03-1.27-.02-1.99-.14-2.17Z"/>
            <path class="st4" d="M260.73,152.94c-.05,1.3-.13,2.32-.24,3.06-.2,1.18-.49,1.89-.88,2.16-.2.14-.41.05-.61-.25-.42-.62-.82-2.43-1.2-5.42-.19-1.74-.37-3.47-.56-5.18,0-.1-.02-.18-.05-.22-.22-.32-.76-.18-1.62.4-.27.18-.45.33-.53.43-.44.68-.55,2.45-.31,5.3.09,1.02.21,1.93.36,2.74.03-.51.04-.76.04-.75.19-.13.45.05.78.55.16.23.22,1,.19,2.29,0,.34-.02.68-.04,1,.1.19.2.37.31.53.44.66,1,1.12,1.68,1.4.68.28,1.27.25,1.8-.1.68-.46,1.19-1.43,1.54-2.92.11-.49.2-1.01.27-1.55-.26-.9-.54-2.4-.85-4.52-.02.27-.04.62-.06,1.07h0Z"/>
            <path class="st4" d="M256.04,140.48c-.61-.08-1.17.05-1.69.4-.55.38-.91.9-1.07,1.57-.17.68-.06,1.3.33,1.86.34.51.82.81,1.43.9.61.09,1.17-.05,1.69-.4.55-.38.91-.9,1.07-1.57s.06-1.3-.33-1.86c-.34-.51-.82-.81-1.43-.89Z"/>
            <path class="st4" d="M255.89,155.74c-.33-.49-.6-.68-.78-.55,0,0,0,.25-.04.75.24,1.28.56,2.31.96,3.09.02-.33.04-.66.04-1,.03-1.29-.03-2.06-.19-2.29h0Z"/>
            <path class="st4" d="M271.38,144.91c-.03.49-.08,1.21-.14,2.16-.14,1.98-.43,3.12-.88,3.43-.33.22-.6.19-.81-.12-.26-.38-.54-1.7-.84-3.97-.15-1.28-.3-2.56-.45-3.85-.13-1.01-.29-1.65-.48-1.93-.14-.21-.48-.27-1.04-.2-.55.07-1.03.24-1.44.52-.51.34-.94,1.37-1.3,3.08-.18.99-.35,1.98-.53,2.97h-.04c-.11-.51-.22-1.02-.34-1.54-.2-.83-.38-1.35-.54-1.59-.18-.26-.54-.35-1.09-.25-.43.08-.77.2-1.02.37-.43.3-.39,2.46.14,6.49.07.49.13.96.19,1.39.02-.37.05-.57.06-.57.17-.12.44.09.8.63.12.18.17.89.16,2.15-.02.82-.08,1.59-.18,2.32.12.4.23.69.33.85.25.37.64.59,1.18.67.54.08.94.03,1.2-.14.17-.12.23-.58.17-1.39-.11-1.73-.18-2.78-.2-3.15-.06-2.75.24-5.71.92-8.89h.11c-.03,1.15.05,2.45.25,3.86.29,2.18.8,3.8,1.51,4.86.38.55.88.88,1.53.98s1.24-.03,1.77-.39c.65-.44,1.15-1.39,1.5-2.83.26-1.06.4-2.22.45-3.47-.46-.74-.79-1.54-.99-2.43h0Z"/>
            <path class="st4" d="M261.66,151.92c-.36-.54-.63-.75-.81-.63-.02.01-.04.21-.06.58.31,2.12.59,3.62.85,4.52.1-.72.16-1.49.18-2.32.01-1.26-.04-1.98-.16-2.15h0Z"/>
            <path class="st4" d="M279.52,131.71c-.27.06-.51.15-.7.28l-.26.18c-.38.26-.6.47-.67.65-.12.78-.2,1.47-.22,2.06-.98-1.01-2.05-1.12-3.2-.34-.95.65-1.76,1.75-2.4,3.3s-.96,3.18-.93,4.88c0,.78.09,1.51.25,2.19.03-.53.05-.8.04-.79.19-.13.45.05.78.55.16.23.22,1,.19,2.29,0,.13-.01.25-.02.39.05.08.09.15.14.23.59.87,1.35,1.44,2.29,1.7.93.26,1.75.15,2.46-.33.78-.53,1.25-1.4,1.4-2.61.29.61.55,1.87.78,3.77.42,3.34,0,5.44-1.28,6.31-.4.27-.84.38-1.3.33-.46-.06-.84-.31-1.13-.74-.3-.45-.38-1-.21-1.64.16-.64.56-1.18,1.18-1.6.69-.47,1.14-.56,1.34-.27.02.03.04.06.07.1.02.04.04.06.05.08.02.03.05.03.07.02.07-.05.12-.23.14-.54,0-.39-.09-.74-.29-1.04-.24-.35-.57-.56-1-.63-.48-.06-.96.08-1.44.4-.9.61-1.47,1.52-1.73,2.73-.26,1.3-.05,2.46.64,3.48.58.86,1.41,1.32,2.49,1.39,1.02.07,2.04-.24,3.05-.92,1.66-1.13,2.5-3.27,2.5-6.41,0-1.31-.32-4.1-.96-8.35-.2-1.29-.51-3.69-.95-7.22-.28-2.29-.49-3.53-.62-3.72-.1-.14-.28-.19-.56-.13h0ZM277.89,141.47c.01,2.67-.33,4.24-1.03,4.71-.61.41-1.18.21-1.73-.6-.71-1.05-1.04-2.71-1-4.99.04-2.4.54-3.93,1.49-4.58.51-.34,1.02-.14,1.52.62.48.71.73,2.33.74,4.84h0Z"/>
            <path class="st4" d="M272.2,144.66c-.34-.49-.6-.68-.78-.55.01,0,0,.26-.04.79.2.89.53,1.69,1,2.43,0-.13.01-.26.02-.38.03-1.29-.03-2.06-.19-2.29h0Z"/>
            <path class="st4" d="M286.19,138.46c-.46-.12-.9-.04-1.32.25-.56.38-.89.97-.98,1.75s.05,1.46.43,2.03c.3.44.67.71,1.14.84.46.12.9.04,1.32-.25.56-.38.89-.96.99-1.74.1-.78-.05-1.46-.44-2.04-.3-.44-.67-.71-1.13-.84Z"/>
          </g>
        </g>
      </g>
    </mask>
    <radialGradient id="radial-gradient" cx="-273.4" cy="409.28" fx="-273.4" fy="409.28" r="1" gradientTransform="translate(-48794.1202 27038.5485) rotate(89.8297) scale(98.004 -119.708)" gradientUnits="userSpaceOnUse">
      <stop offset=".15" stop-color="#fff" stop-opacity="0"/>
      <stop offset=".93" stop-color="#000"/>
    </radialGradient>
  </defs>
  <path d="M0,0h241v198H0V0Z"/>
  <g class="st1">
    <g>
      <path class="st3" d="M.5,1.35l239.41-.71.58,196.01-239.42.71L.5,1.35Z"/>
      <path class="st5" d="M.5,1.35l239.41-.71.58,196.01-239.42.71L.5,1.35Z"/>
    </g>
  </g>
</svg>
